<svg xmlns="http://www.w3.org/2000/svg" xmlns:xlink="http://www.w3.org/1999/xlink" width="500" zoomAndPan="magnify" viewBox="0 0 375 374.999991" height="500" preserveAspectRatio="xMidYMid meet" version="1.0"><defs><g/><clipPath id="f853de3365"><path d="M 82.179688 82 L 277 82 L 277 220 L 82.179688 220 Z M 82.179688 82 " clip-rule="nonzero"/></clipPath><clipPath id="56f7c5d98b"><path d="M 98 155 L 292.929688 155 L 292.929688 293 L 98 293 Z M 98 155 " clip-rule="nonzero"/></clipPath><clipPath id="b7ea133061"><path d="M 44.257812 24 L 330.757812 24 L 330.757812 320 L 44.257812 320 Z M 44.257812 24 " clip-rule="nonzero"/></clipPath></defs><path fill="#ffde59" d="M 165.847656 238.925781 L 184.507812 196.796875 L 153.046875 187.585938 L 158.972656 176.480469 L 192.550781 113.457031 L 182.679688 168.675781 L 220.300781 180.085938 L 158.296875 255.992188 Z M 165.847656 238.925781 " fill-opacity="1" fill-rule="nonzero"/><g clip-path="url(#f853de3365)"><path fill="#386641" d="M 272.992188 111.054688 C 274.957031 111.324219 276.34375 113.136719 276.074219 115.101562 L 274.175781 129.105469 C 273.769531 132.136719 271.046875 134.285156 267.996094 134.015625 L 253.265625 132.660156 C 251.488281 132.492188 250.167969 131 250.167969 129.273438 C 250.167969 129.121094 250.183594 128.96875 250.203125 128.816406 C 250.457031 126.953125 252.167969 125.632812 254.027344 125.886719 L 261.546875 126.917969 C 242.972656 104.28125 214.222656 90.3125 182.289062 92.007812 C 133.898438 94.5625 94.632812 133.726562 91.941406 182.117188 C 91.28125 193.734375 92.71875 204.941406 95.886719 215.390625 L 87.417969 219.351562 C 83.898438 208.261719 82.171875 196.375 82.578125 184.03125 C 84.371094 130.136719 127.53125 85.84375 181.355469 82.777344 C 216.21875 80.796875 247.644531 95.832031 268.117188 120.332031 C 268.117188 120.332031 268.589844 116.914062 268.960938 114.121094 C 269.214844 112.324219 270.742188 111.019531 272.5 111.019531 C 272.652344 111.019531 272.824219 111.039062 272.992188 111.054688 Z M 272.992188 111.054688 " fill-opacity="1" fill-rule="nonzero"/></g><g clip-path="url(#56f7c5d98b)"><path fill="#a7c957" d="M 287.585938 155.824219 C 291.109375 166.914062 292.835938 178.800781 292.429688 191.140625 C 290.636719 245.035156 247.476562 289.332031 193.648438 292.394531 C 158.785156 294.375 127.359375 279.339844 106.890625 254.839844 C 106.890625 254.839844 106.398438 258.414062 106.027344 261.222656 C 105.773438 263.085938 104.046875 264.390625 102.183594 264.136719 L 101.828125 264.085938 C 99.964844 263.832031 98.660156 262.121094 98.898438 260.257812 L 100.828125 246.070312 C 101.234375 243.039062 103.960938 240.886719 107.007812 241.160156 L 121.738281 242.515625 C 123.519531 242.683594 124.839844 244.171875 124.839844 245.898438 C 124.839844 246.050781 124.820312 246.203125 124.804688 246.359375 C 124.550781 248.21875 122.839844 249.539062 120.976562 249.285156 L 113.460938 248.253906 C 132.035156 270.890625 160.785156 284.859375 192.71875 283.167969 C 241.109375 280.609375 280.375 241.445312 283.066406 193.054688 C 283.726562 181.441406 282.289062 170.230469 279.121094 159.785156 Z M 287.585938 155.824219 " fill-opacity="1" fill-rule="nonzero"/></g><g clip-path="url(#b7ea133061)"><path fill="#386641" d="M 330.734375 132.40625 C 330.734375 119.800781 324.429688 108.023438 313.949219 101.011719 C 289.035156 84.40625 235.613281 48.832031 208.402344 30.691406 C 195.742188 22.269531 179.25 22.269531 166.585938 30.691406 C 139.375 48.832031 85.957031 84.40625 61.042969 101.011719 C 50.558594 108.023438 44.257812 119.800781 44.257812 132.40625 C 44.257812 165.210938 44.257812 240.011719 44.257812 282.121094 C 44.257812 292.136719 48.203125 301.734375 55.269531 308.804688 C 62.339844 315.871094 71.9375 319.816406 81.949219 319.816406 C 134.132812 319.816406 240.796875 319.816406 293.039062 319.816406 C 303.050781 319.816406 312.59375 315.871094 319.71875 308.804688 C 326.785156 301.734375 330.734375 292.136719 330.734375 282.121094 C 330.734375 240.011719 330.734375 165.210938 330.734375 132.40625 Z M 315.65625 132.40625 L 315.65625 282.121094 C 315.65625 288.128906 313.300781 293.84375 309.058594 298.144531 C 304.757812 302.382812 299.046875 304.738281 293.039062 304.738281 L 81.949219 304.738281 C 75.941406 304.738281 70.230469 302.382812 65.929688 298.144531 C 61.691406 293.84375 59.335938 288.128906 59.335938 282.121094 C 59.335938 240.011719 59.335938 165.210938 59.335938 132.40625 C 59.335938 124.867188 63.105469 117.800781 69.40625 113.558594 L 174.949219 43.234375 C 182.546875 38.167969 192.441406 38.167969 200.039062 43.234375 C 227.25 61.375 280.671875 96.949219 305.582031 113.558594 C 311.886719 117.800781 315.65625 124.867188 315.65625 132.40625 " fill-opacity="1" fill-rule="evenodd"/></g><g fill="#386641" fill-opacity="1"><g transform="translate(55.271486, 359.458716)"><g><path d="M 13.4375 0.390625 C 11.132812 0.390625 9.140625 -0.132812 7.453125 -1.1875 C 5.765625 -2.238281 4.460938 -3.828125 3.546875 -5.953125 C 2.628906 -8.078125 2.171875 -10.707031 2.171875 -13.84375 C 2.171875 -17 2.71875 -19.640625 3.8125 -21.765625 C 4.914062 -23.890625 6.441406 -25.472656 8.390625 -26.515625 C 10.347656 -27.554688 12.613281 -28.078125 15.1875 -28.078125 C 17.832031 -28.078125 20.085938 -27.582031 21.953125 -26.59375 C 23.828125 -25.613281 25.144531 -24.15625 25.90625 -22.21875 L 21.90625 -19.78125 L 21.4375 -19.8125 C 20.863281 -21.039062 20.0625 -21.941406 19.03125 -22.515625 C 18.007812 -23.085938 16.726562 -23.375 15.1875 -23.375 C 12.800781 -23.375 10.976562 -22.617188 9.71875 -21.109375 C 8.457031 -19.597656 7.828125 -17.175781 7.828125 -13.84375 C 7.828125 -10.5 8.414062 -8.066406 9.59375 -6.546875 C 10.769531 -5.035156 12.515625 -4.28125 14.828125 -4.28125 C 16.816406 -4.28125 18.285156 -4.726562 19.234375 -5.625 C 20.179688 -6.519531 20.65625 -7.859375 20.65625 -9.640625 L 20.65625 -10.828125 L 14.109375 -10.828125 L 14.109375 -15.28125 L 26.09375 -15.28125 L 26.09375 0 L 20.875 0 L 20.875 -3.71875 L 20.46875 -3.765625 C 19.90625 -2.441406 19.046875 -1.414062 17.890625 -0.6875 C 16.734375 0.03125 15.25 0.390625 13.4375 0.390625 Z M 13.4375 0.390625 "/></g></g></g><g fill="#386641" fill-opacity="1"><g transform="translate(84.146221, 359.458716)"><g><path d="M 3.015625 0 L 3.015625 -20.890625 L 8.109375 -20.890625 L 8.109375 -17.78125 L 8.5 -17.703125 C 9.007812 -18.867188 9.671875 -19.722656 10.484375 -20.265625 C 11.304688 -20.804688 12.304688 -21.078125 13.484375 -21.078125 C 14.671875 -21.078125 15.570312 -20.875 16.1875 -20.46875 L 15.296875 -15.9375 L 14.90625 -15.875 C 14.5625 -16.007812 14.226562 -16.109375 13.90625 -16.171875 C 13.59375 -16.234375 13.210938 -16.265625 12.765625 -16.265625 C 11.296875 -16.265625 10.175781 -15.75 9.40625 -14.71875 C 8.632812 -13.6875 8.25 -12.035156 8.25 -9.765625 L 8.25 0 Z M 3.015625 0 "/></g></g></g><g fill="#386641" fill-opacity="1"><g transform="translate(100.524352, 359.458716)"><g><path d="M 20.640625 -9.265625 L 7.21875 -9.265625 C 7.363281 -7.441406 7.878906 -6.113281 8.765625 -5.28125 C 9.648438 -4.457031 10.859375 -4.046875 12.390625 -4.046875 C 13.585938 -4.046875 14.554688 -4.269531 15.296875 -4.71875 C 16.046875 -5.164062 16.644531 -5.847656 17.09375 -6.765625 L 17.5 -6.765625 L 20.984375 -4.53125 C 20.296875 -3.0625 19.265625 -1.875 17.890625 -0.96875 C 16.515625 -0.0625 14.679688 0.390625 12.390625 0.390625 C 10.222656 0.390625 8.351562 -0.015625 6.78125 -0.828125 C 5.21875 -1.648438 4.007812 -2.875 3.15625 -4.5 C 2.300781 -6.125 1.875 -8.101562 1.875 -10.4375 C 1.875 -12.8125 2.320312 -14.8125 3.21875 -16.4375 C 4.113281 -18.0625 5.320312 -19.273438 6.84375 -20.078125 C 8.375 -20.878906 10.09375 -21.28125 12 -21.28125 C 14.957031 -21.28125 17.222656 -20.5 18.796875 -18.9375 C 20.367188 -17.375 21.15625 -15.078125 21.15625 -12.046875 C 21.15625 -10.941406 21.113281 -10.085938 21.03125 -9.484375 Z M 16.140625 -12.65625 C 16.085938 -14.238281 15.71875 -15.394531 15.03125 -16.125 C 14.34375 -16.851562 13.332031 -17.21875 12 -17.21875 C 9.351562 -17.21875 7.796875 -15.695312 7.328125 -12.65625 Z M 16.140625 -12.65625 "/></g></g></g><g fill="#386641" fill-opacity="1"><g transform="translate(123.226522, 359.458716)"><g><path d="M 20.640625 -9.265625 L 7.21875 -9.265625 C 7.363281 -7.441406 7.878906 -6.113281 8.765625 -5.28125 C 9.648438 -4.457031 10.859375 -4.046875 12.390625 -4.046875 C 13.585938 -4.046875 14.554688 -4.269531 15.296875 -4.71875 C 16.046875 -5.164062 16.644531 -5.847656 17.09375 -6.765625 L 17.5 -6.765625 L 20.984375 -4.53125 C 20.296875 -3.0625 19.265625 -1.875 17.890625 -0.96875 C 16.515625 -0.0625 14.679688 0.390625 12.390625 0.390625 C 10.222656 0.390625 8.351562 -0.015625 6.78125 -0.828125 C 5.21875 -1.648438 4.007812 -2.875 3.15625 -4.5 C 2.300781 -6.125 1.875 -8.101562 1.875 -10.4375 C 1.875 -12.8125 2.320312 -14.8125 3.21875 -16.4375 C 4.113281 -18.0625 5.320312 -19.273438 6.84375 -20.078125 C 8.375 -20.878906 10.09375 -21.28125 12 -21.28125 C 14.957031 -21.28125 17.222656 -20.5 18.796875 -18.9375 C 20.367188 -17.375 21.15625 -15.078125 21.15625 -12.046875 C 21.15625 -10.941406 21.113281 -10.085938 21.03125 -9.484375 Z M 16.140625 -12.65625 C 16.085938 -14.238281 15.71875 -15.394531 15.03125 -16.125 C 14.34375 -16.851562 13.332031 -17.21875 12 -17.21875 C 9.351562 -17.21875 7.796875 -15.695312 7.328125 -12.65625 Z M 16.140625 -12.65625 "/></g></g></g><g fill="#386641" fill-opacity="1"><g transform="translate(145.928692, 359.458716)"><g><path d="M 3.015625 0 L 3.015625 -20.890625 L 8.046875 -20.890625 L 8.046875 -17.8125 L 8.453125 -17.71875 C 9.742188 -20.09375 11.847656 -21.28125 14.765625 -21.28125 C 17.179688 -21.28125 18.953125 -20.625 20.078125 -19.3125 C 21.210938 -18 21.78125 -16.085938 21.78125 -13.578125 L 21.78125 0 L 16.53125 0 L 16.53125 -12.9375 C 16.53125 -14.320312 16.25 -15.320312 15.6875 -15.9375 C 15.132812 -16.550781 14.25 -16.859375 13.03125 -16.859375 C 11.53125 -16.859375 10.359375 -16.367188 9.515625 -15.390625 C 8.671875 -14.421875 8.25 -12.894531 8.25 -10.8125 L 8.25 0 Z M 3.015625 0 "/></g></g></g><g fill="#6a994e" fill-opacity="1"><g transform="translate(170.396479, 359.458716)"><g><path d="M 9.078125 -12.15625 L 9.078125 -4.578125 L 22.28125 -4.578125 L 22.28125 0 L 3.59375 0 L 3.59375 -27.6875 L 21.984375 -27.6875 L 21.984375 -23.109375 L 9.078125 -23.109375 L 9.078125 -16.625 L 20.359375 -16.625 L 20.359375 -12.15625 Z M 9.078125 -12.15625 "/></g></g></g><g fill="#6a994e" fill-opacity="1"><g transform="translate(194.196835, 359.458716)"><g><path d="M 12.171875 0.390625 C 10.148438 0.390625 8.363281 -0.0234375 6.8125 -0.859375 C 5.257812 -1.703125 4.046875 -2.9375 3.171875 -4.5625 C 2.304688 -6.1875 1.875 -8.144531 1.875 -10.4375 C 1.875 -12.726562 2.304688 -14.6875 3.171875 -16.3125 C 4.046875 -17.945312 5.253906 -19.179688 6.796875 -20.015625 C 8.335938 -20.859375 10.097656 -21.28125 12.078125 -21.28125 C 16.484375 -21.28125 19.304688 -19.6875 20.546875 -16.5 L 16.953125 -13.921875 L 16.546875 -13.921875 C 16.117188 -14.898438 15.5625 -15.628906 14.875 -16.109375 C 14.1875 -16.585938 13.253906 -16.828125 12.078125 -16.828125 C 10.566406 -16.828125 9.382812 -16.300781 8.53125 -15.25 C 7.6875 -14.207031 7.265625 -12.601562 7.265625 -10.4375 C 7.265625 -8.289062 7.691406 -6.6875 8.546875 -5.625 C 9.410156 -4.570312 10.617188 -4.046875 12.171875 -4.046875 C 13.304688 -4.046875 14.269531 -4.351562 15.0625 -4.96875 C 15.851562 -5.582031 16.421875 -6.460938 16.765625 -7.609375 L 17.15625 -7.65625 L 20.890625 -5.609375 C 20.359375 -3.835938 19.375 -2.394531 17.9375 -1.28125 C 16.507812 -0.164062 14.585938 0.390625 12.171875 0.390625 Z M 12.171875 0.390625 "/></g></g></g><g fill="#6a994e" fill-opacity="1"><g transform="translate(215.725081, 359.458716)"><g><path d="M 12.140625 0.390625 C 10.097656 0.390625 8.300781 -0.0234375 6.75 -0.859375 C 5.207031 -1.703125 4.007812 -2.929688 3.15625 -4.546875 C 2.300781 -6.171875 1.875 -8.132812 1.875 -10.4375 C 1.875 -12.726562 2.300781 -14.6875 3.15625 -16.3125 C 4.007812 -17.945312 5.207031 -19.179688 6.75 -20.015625 C 8.300781 -20.859375 10.097656 -21.28125 12.140625 -21.28125 C 14.179688 -21.28125 15.972656 -20.859375 17.515625 -20.015625 C 19.066406 -19.179688 20.269531 -17.945312 21.125 -16.3125 C 21.988281 -14.6875 22.421875 -12.726562 22.421875 -10.4375 C 22.421875 -8.132812 21.988281 -6.171875 21.125 -4.546875 C 20.269531 -2.929688 19.066406 -1.703125 17.515625 -0.859375 C 15.972656 -0.0234375 14.179688 0.390625 12.140625 0.390625 Z M 12.140625 -4.046875 C 15.378906 -4.046875 17 -6.175781 17 -10.4375 C 17 -12.644531 16.582031 -14.257812 15.75 -15.28125 C 14.914062 -16.3125 13.710938 -16.828125 12.140625 -16.828125 C 8.890625 -16.828125 7.265625 -14.695312 7.265625 -10.4375 C 7.265625 -6.175781 8.890625 -4.046875 12.140625 -4.046875 Z M 12.140625 -4.046875 "/></g></g></g><g fill="#a7c957" fill-opacity="1"><g transform="translate(240.005849, 359.458716)"><g><path d="M 21.46875 -17.265625 L 21.46875 -27.6875 L 26.921875 -27.6875 L 26.921875 0 L 21.46875 0 L 21.46875 -12.609375 L 9.078125 -12.609375 L 9.078125 0 L 3.59375 0 L 3.59375 -27.6875 L 9.078125 -27.6875 L 9.078125 -17.265625 Z M 21.46875 -17.265625 "/></g></g></g><g fill="#a7c957" fill-opacity="1"><g transform="translate(270.546798, 359.458716)"><g><path d="M 9.5625 0.390625 C 7.21875 0.390625 5.484375 -0.25 4.359375 -1.53125 C 3.242188 -2.8125 2.6875 -4.648438 2.6875 -7.046875 L 2.6875 -20.890625 L 7.9375 -20.890625 L 7.9375 -7.703125 C 7.9375 -6.429688 8.207031 -5.5 8.75 -4.90625 C 9.300781 -4.320312 10.15625 -4.03125 11.3125 -4.03125 C 12.757812 -4.03125 13.882812 -4.503906 14.6875 -5.453125 C 15.5 -6.410156 15.90625 -7.910156 15.90625 -9.953125 L 15.90625 -20.890625 L 21.15625 -20.890625 L 21.15625 0 L 16.109375 0 L 16.109375 -3.0625 L 15.71875 -3.15625 C 15.050781 -1.957031 14.234375 -1.066406 13.265625 -0.484375 C 12.296875 0.0976562 11.0625 0.390625 9.5625 0.390625 Z M 9.5625 0.390625 "/></g></g></g><g fill="#a7c957" fill-opacity="1"><g transform="translate(294.706899, 359.458716)"><g><path d="M 14.59375 0.390625 C 11.9375 0.390625 9.957031 -0.601562 8.65625 -2.59375 L 8.25 -2.515625 L 8.25 0 L 3.015625 0 L 3.015625 -29.28125 L 8.25 -29.28125 L 8.25 -18.421875 L 8.65625 -18.34375 C 9.375 -19.34375 10.222656 -20.082031 11.203125 -20.5625 C 12.179688 -21.039062 13.351562 -21.28125 14.71875 -21.28125 C 16.40625 -21.28125 17.878906 -20.878906 19.140625 -20.078125 C 20.398438 -19.285156 21.382812 -18.078125 22.09375 -16.453125 C 22.800781 -14.835938 23.15625 -12.832031 23.15625 -10.4375 C 23.15625 -8.0625 22.789062 -6.0625 22.0625 -4.4375 C 21.332031 -2.8125 20.320312 -1.597656 19.03125 -0.796875 C 17.738281 -0.00390625 16.257812 0.390625 14.59375 0.390625 Z M 13.015625 -4.046875 C 14.546875 -4.046875 15.71875 -4.5625 16.53125 -5.59375 C 17.34375 -6.625 17.75 -8.238281 17.75 -10.4375 C 17.75 -12.644531 17.34375 -14.257812 16.53125 -15.28125 C 15.71875 -16.3125 14.546875 -16.828125 13.015625 -16.828125 C 11.535156 -16.828125 10.363281 -16.296875 9.5 -15.234375 C 8.632812 -14.179688 8.203125 -12.582031 8.203125 -10.4375 C 8.203125 -8.289062 8.632812 -6.6875 9.5 -5.625 C 10.363281 -4.570312 11.535156 -4.046875 13.015625 -4.046875 Z M 13.015625 -4.046875 "/></g></g></g></svg>