<svg xmlns="http://www.w3.org/2000/svg" xmlns:xlink="http://www.w3.org/1999/xlink" width="500" zoomAndPan="magnify" viewBox="0 0 375 374.999991" height="500" preserveAspectRatio="xMidYMid meet" version="1.0"><defs><g/><clipPath id="30444a7c4c"><path d="M 330.148438 148 L 356 148 L 356 166 L 330.148438 166 Z M 330.148438 148 " clip-rule="nonzero"/></clipPath><clipPath id="608cdbd29e"><path d="M 332 157 L 357.148438 157 L 357.148438 175.648438 L 332 175.648438 Z M 332 157 " clip-rule="nonzero"/></clipPath><clipPath id="2aa76b1cad"><path d="M 325.273438 140.195312 L 362.023438 140.195312 L 362.023438 179 L 325.273438 179 Z M 325.273438 140.195312 " clip-rule="nonzero"/></clipPath></defs><g fill="#386641" fill-opacity="1"><g transform="translate(4.985139, 205.976044)"><g><path d="M 16.609375 0.484375 C 13.753906 0.484375 11.285156 -0.164062 9.203125 -1.46875 C 7.117188 -2.769531 5.507812 -4.734375 4.375 -7.359375 C 3.25 -9.984375 2.6875 -13.226562 2.6875 -17.09375 C 2.6875 -20.988281 3.363281 -24.25 4.71875 -26.875 C 6.082031 -29.5 7.96875 -31.453125 10.375 -32.734375 C 12.78125 -34.023438 15.570312 -34.671875 18.75 -34.671875 C 22.03125 -34.671875 24.820312 -34.0625 27.125 -32.84375 C 29.4375 -31.632812 31.054688 -29.828125 31.984375 -27.421875 L 27.0625 -24.4375 L 26.46875 -24.453125 C 25.769531 -25.984375 24.785156 -27.097656 23.515625 -27.796875 C 22.242188 -28.503906 20.65625 -28.859375 18.75 -28.859375 C 15.800781 -28.859375 13.546875 -27.925781 11.984375 -26.0625 C 10.429688 -24.195312 9.65625 -21.207031 9.65625 -17.09375 C 9.65625 -12.957031 10.382812 -9.953125 11.84375 -8.078125 C 13.300781 -6.210938 15.457031 -5.28125 18.3125 -5.28125 C 20.769531 -5.28125 22.582031 -5.832031 23.75 -6.9375 C 24.925781 -8.050781 25.515625 -9.707031 25.515625 -11.90625 L 25.515625 -13.375 L 17.421875 -13.375 L 17.421875 -18.875 L 32.21875 -18.875 L 32.21875 0 L 25.765625 0 L 25.765625 -4.578125 L 25.28125 -4.65625 C 24.570312 -3.019531 23.503906 -1.753906 22.078125 -0.859375 C 20.660156 0.0351562 18.835938 0.484375 16.609375 0.484375 Z M 16.609375 0.484375 "/></g></g></g><g fill="#386641" fill-opacity="1"><g transform="translate(40.643496, 205.976044)"><g><path d="M 3.71875 0 L 3.71875 -25.796875 L 10.015625 -25.796875 L 10.015625 -21.953125 L 10.5 -21.859375 C 11.125 -23.296875 11.941406 -24.347656 12.953125 -25.015625 C 13.960938 -25.691406 15.195312 -26.03125 16.65625 -26.03125 C 18.113281 -26.03125 19.226562 -25.78125 20 -25.28125 L 18.890625 -19.6875 L 18.40625 -19.59375 C 17.976562 -19.769531 17.570312 -19.894531 17.1875 -19.96875 C 16.800781 -20.050781 16.328125 -20.09375 15.765625 -20.09375 C 13.953125 -20.09375 12.570312 -19.457031 11.625 -18.1875 C 10.675781 -16.914062 10.203125 -14.875 10.203125 -12.0625 L 10.203125 0 Z M 3.71875 0 "/></g></g></g><g fill="#386641" fill-opacity="1"><g transform="translate(60.869385, 205.976044)"><g><path d="M 25.484375 -11.4375 L 8.90625 -11.4375 C 9.09375 -9.1875 9.734375 -7.550781 10.828125 -6.53125 C 11.921875 -5.507812 13.410156 -5 15.296875 -5 C 16.773438 -5 17.972656 -5.273438 18.890625 -5.828125 C 19.816406 -6.390625 20.554688 -7.226562 21.109375 -8.34375 L 21.609375 -8.34375 L 25.90625 -5.59375 C 25.0625 -3.78125 23.789062 -2.3125 22.09375 -1.1875 C 20.394531 -0.0703125 18.128906 0.484375 15.296875 0.484375 C 12.628906 0.484375 10.320312 -0.0195312 8.375 -1.03125 C 6.4375 -2.039062 4.941406 -3.546875 3.890625 -5.546875 C 2.835938 -7.554688 2.3125 -10.003906 2.3125 -12.890625 C 2.3125 -15.816406 2.863281 -18.285156 3.96875 -20.296875 C 5.082031 -22.304688 6.582031 -23.804688 8.46875 -24.796875 C 10.351562 -25.785156 12.472656 -26.28125 14.828125 -26.28125 C 18.472656 -26.28125 21.265625 -25.3125 23.203125 -23.375 C 25.148438 -21.445312 26.125 -18.613281 26.125 -14.875 C 26.125 -13.519531 26.078125 -12.46875 25.984375 -11.71875 Z M 19.921875 -15.625 C 19.859375 -17.582031 19.398438 -19.007812 18.546875 -19.90625 C 17.703125 -20.800781 16.460938 -21.25 14.828125 -21.25 C 11.554688 -21.25 9.628906 -19.375 9.046875 -15.625 Z M 19.921875 -15.625 "/></g></g></g><g fill="#386641" fill-opacity="1"><g transform="translate(88.905039, 205.976044)"><g><path d="M 25.484375 -11.4375 L 8.90625 -11.4375 C 9.09375 -9.1875 9.734375 -7.550781 10.828125 -6.53125 C 11.921875 -5.507812 13.410156 -5 15.296875 -5 C 16.773438 -5 17.972656 -5.273438 18.890625 -5.828125 C 19.816406 -6.390625 20.554688 -7.226562 21.109375 -8.34375 L 21.609375 -8.34375 L 25.90625 -5.59375 C 25.0625 -3.78125 23.789062 -2.3125 22.09375 -1.1875 C 20.394531 -0.0703125 18.128906 0.484375 15.296875 0.484375 C 12.628906 0.484375 10.320312 -0.0195312 8.375 -1.03125 C 6.4375 -2.039062 4.941406 -3.546875 3.890625 -5.546875 C 2.835938 -7.554688 2.3125 -10.003906 2.3125 -12.890625 C 2.3125 -15.816406 2.863281 -18.285156 3.96875 -20.296875 C 5.082031 -22.304688 6.582031 -23.804688 8.46875 -24.796875 C 10.351562 -25.785156 12.472656 -26.28125 14.828125 -26.28125 C 18.472656 -26.28125 21.265625 -25.3125 23.203125 -23.375 C 25.148438 -21.445312 26.125 -18.613281 26.125 -14.875 C 26.125 -13.519531 26.078125 -12.46875 25.984375 -11.71875 Z M 19.921875 -15.625 C 19.859375 -17.582031 19.398438 -19.007812 18.546875 -19.90625 C 17.703125 -20.800781 16.460938 -21.25 14.828125 -21.25 C 11.554688 -21.25 9.628906 -19.375 9.046875 -15.625 Z M 19.921875 -15.625 "/></g></g></g><g fill="#386641" fill-opacity="1"><g transform="translate(116.940693, 205.976044)"><g><path d="M 3.71875 0 L 3.71875 -25.796875 L 9.9375 -25.796875 L 9.9375 -22 L 10.421875 -21.890625 C 12.035156 -24.816406 14.640625 -26.28125 18.234375 -26.28125 C 21.210938 -26.28125 23.398438 -25.46875 24.796875 -23.84375 C 26.191406 -22.226562 26.890625 -19.867188 26.890625 -16.765625 L 26.890625 0 L 20.421875 0 L 20.421875 -15.96875 C 20.421875 -17.6875 20.078125 -18.921875 19.390625 -19.671875 C 18.703125 -20.429688 17.601562 -20.8125 16.09375 -20.8125 C 14.238281 -20.8125 12.789062 -20.207031 11.75 -19 C 10.71875 -17.800781 10.203125 -15.921875 10.203125 -13.359375 L 10.203125 0 Z M 3.71875 0 "/></g></g></g><g fill="#6a994e" fill-opacity="1"><g transform="translate(147.160094, 205.976044)"><g><path d="M 11.203125 -15.015625 L 11.203125 -5.65625 L 27.515625 -5.65625 L 27.515625 0 L 4.4375 0 L 4.4375 -34.1875 L 27.15625 -34.1875 L 27.15625 -28.53125 L 11.203125 -28.53125 L 11.203125 -20.53125 L 25.140625 -20.53125 L 25.140625 -15.015625 Z M 11.203125 -15.015625 "/></g></g></g><g fill="#6a994e" fill-opacity="1"><g transform="translate(176.551934, 205.976044)"><g><path d="M 15.03125 0.484375 C 12.539062 0.484375 10.335938 -0.03125 8.421875 -1.0625 C 6.503906 -2.101562 5.003906 -3.628906 3.921875 -5.640625 C 2.847656 -7.648438 2.3125 -10.066406 2.3125 -12.890625 C 2.3125 -15.722656 2.847656 -18.144531 3.921875 -20.15625 C 5.003906 -22.164062 6.492188 -23.6875 8.390625 -24.71875 C 10.296875 -25.757812 12.472656 -26.28125 14.921875 -26.28125 C 20.359375 -26.28125 23.84375 -24.3125 25.375 -20.375 L 20.921875 -17.1875 L 20.4375 -17.1875 C 19.90625 -18.40625 19.210938 -19.304688 18.359375 -19.890625 C 17.515625 -20.484375 16.367188 -20.78125 14.921875 -20.78125 C 13.046875 -20.78125 11.585938 -20.132812 10.546875 -18.84375 C 9.503906 -17.550781 8.984375 -15.566406 8.984375 -12.890625 C 8.984375 -10.234375 9.507812 -8.253906 10.5625 -6.953125 C 11.625 -5.648438 13.113281 -5 15.03125 -5 C 16.4375 -5 17.625 -5.375 18.59375 -6.125 C 19.570312 -6.882812 20.269531 -7.976562 20.6875 -9.40625 L 21.1875 -9.453125 L 25.796875 -6.921875 C 25.140625 -4.734375 23.925781 -2.953125 22.15625 -1.578125 C 20.382812 -0.203125 18.007812 0.484375 15.03125 0.484375 Z M 15.03125 0.484375 "/></g></g></g><g fill="#6a994e" fill-opacity="1"><g transform="translate(203.137871, 205.976044)"><g><path d="M 14.984375 0.484375 C 12.460938 0.484375 10.242188 -0.03125 8.328125 -1.0625 C 6.421875 -2.101562 4.941406 -3.625 3.890625 -5.625 C 2.835938 -7.625 2.3125 -10.046875 2.3125 -12.890625 C 2.3125 -15.722656 2.835938 -18.144531 3.890625 -20.15625 C 4.941406 -22.164062 6.421875 -23.6875 8.328125 -24.71875 C 10.242188 -25.757812 12.460938 -26.28125 14.984375 -26.28125 C 17.515625 -26.28125 19.734375 -25.757812 21.640625 -24.71875 C 23.546875 -23.6875 25.03125 -22.164062 26.09375 -20.15625 C 27.15625 -18.144531 27.6875 -15.722656 27.6875 -12.890625 C 27.6875 -10.046875 27.15625 -7.625 26.09375 -5.625 C 25.03125 -3.625 23.546875 -2.101562 21.640625 -1.0625 C 19.734375 -0.03125 17.515625 0.484375 14.984375 0.484375 Z M 14.984375 -5 C 18.992188 -5 21 -7.628906 21 -12.890625 C 21 -15.617188 20.484375 -17.613281 19.453125 -18.875 C 18.421875 -20.144531 16.929688 -20.78125 14.984375 -20.78125 C 10.984375 -20.78125 8.984375 -18.148438 8.984375 -12.890625 C 8.984375 -7.628906 10.984375 -5 14.984375 -5 Z M 14.984375 -5 "/></g></g></g><g fill="#a7c957" fill-opacity="1"><g transform="translate(233.127325, 205.976044)"><g><path d="M 26.515625 -21.328125 L 26.515625 -34.1875 L 33.25 -34.1875 L 33.25 0 L 26.515625 0 L 26.515625 -15.578125 L 11.203125 -15.578125 L 11.203125 0 L 4.4375 0 L 4.4375 -34.1875 L 11.203125 -34.1875 L 11.203125 -21.328125 Z M 26.515625 -21.328125 "/></g></g></g><g fill="#a7c957" fill-opacity="1"><g transform="translate(270.843343, 205.976044)"><g><path d="M 11.8125 0.484375 C 8.90625 0.484375 6.765625 -0.300781 5.390625 -1.875 C 4.015625 -3.457031 3.328125 -5.734375 3.328125 -8.703125 L 3.328125 -25.796875 L 9.796875 -25.796875 L 9.796875 -9.515625 C 9.796875 -7.941406 10.132812 -6.789062 10.8125 -6.0625 C 11.488281 -5.34375 12.535156 -4.984375 13.953125 -4.984375 C 15.753906 -4.984375 17.148438 -5.570312 18.140625 -6.75 C 19.140625 -7.925781 19.640625 -9.773438 19.640625 -12.296875 L 19.640625 -25.796875 L 26.125 -25.796875 L 26.125 0 L 19.90625 0 L 19.90625 -3.78125 L 19.40625 -3.90625 C 18.582031 -2.425781 17.570312 -1.320312 16.375 -0.59375 C 15.1875 0.125 13.664062 0.484375 11.8125 0.484375 Z M 11.8125 0.484375 "/></g></g></g><g fill="#a7c957" fill-opacity="1"><g transform="translate(300.679444, 205.976044)"><g><path d="M 18.03125 0.484375 C 14.738281 0.484375 12.289062 -0.742188 10.6875 -3.203125 L 10.203125 -3.109375 L 10.203125 0 L 3.71875 0 L 3.71875 -36.15625 L 10.203125 -36.15625 L 10.203125 -22.75 L 10.6875 -22.65625 C 11.570312 -23.882812 12.617188 -24.796875 13.828125 -25.390625 C 15.035156 -25.984375 16.484375 -26.28125 18.171875 -26.28125 C 20.253906 -26.28125 22.078125 -25.789062 23.640625 -24.8125 C 25.203125 -23.832031 26.414062 -22.335938 27.28125 -20.328125 C 28.15625 -18.328125 28.59375 -15.847656 28.59375 -12.890625 C 28.59375 -9.953125 28.140625 -7.484375 27.234375 -5.484375 C 26.335938 -3.484375 25.09375 -1.988281 23.5 -1 C 21.90625 -0.0078125 20.082031 0.484375 18.03125 0.484375 Z M 16.0625 -5 C 17.96875 -5 19.414062 -5.632812 20.40625 -6.90625 C 21.40625 -8.175781 21.90625 -10.171875 21.90625 -12.890625 C 21.90625 -15.617188 21.40625 -17.613281 20.40625 -18.875 C 19.414062 -20.144531 17.96875 -20.78125 16.0625 -20.78125 C 14.238281 -20.78125 12.789062 -20.125 11.71875 -18.8125 C 10.65625 -17.507812 10.125 -15.535156 10.125 -12.890625 C 10.125 -10.234375 10.65625 -8.253906 11.71875 -6.953125 C 12.789062 -5.648438 14.238281 -5 16.0625 -5 Z M 16.0625 -5 "/></g></g></g><path fill="#ffde59" d="M 340.898438 168.265625 L 343.296875 162.851562 L 339.253906 161.667969 L 340.015625 160.242188 L 344.332031 152.140625 L 343.0625 159.238281 L 347.898438 160.703125 L 339.929688 170.460938 Z M 340.898438 168.265625 " fill-opacity="1" fill-rule="nonzero"/><g clip-path="url(#30444a7c4c)"><path fill="#386641" d="M 354.671875 151.832031 C 354.921875 151.867188 355.101562 152.101562 355.066406 152.351562 L 354.824219 154.152344 C 354.769531 154.542969 354.421875 154.816406 354.027344 154.78125 L 352.136719 154.609375 C 351.90625 154.585938 351.738281 154.394531 351.738281 154.175781 C 351.738281 154.15625 351.738281 154.132812 351.742188 154.113281 C 351.773438 153.875 351.992188 153.707031 352.234375 153.738281 L 353.199219 153.871094 C 350.8125 150.960938 347.117188 149.167969 343.011719 149.382812 C 336.792969 149.714844 331.746094 154.746094 331.402344 160.964844 C 331.316406 162.457031 331.5 163.898438 331.910156 165.242188 L 330.820312 165.75 C 330.367188 164.324219 330.144531 162.796875 330.199219 161.210938 C 330.429688 154.285156 335.976562 148.59375 342.894531 148.199219 C 347.375 147.945312 351.414062 149.875 354.042969 153.023438 C 354.042969 153.023438 354.105469 152.585938 354.152344 152.226562 C 354.183594 151.996094 354.378906 151.828125 354.605469 151.828125 C 354.625 151.828125 354.648438 151.832031 354.671875 151.832031 Z M 354.671875 151.832031 " fill-opacity="1" fill-rule="nonzero"/></g><g clip-path="url(#608cdbd29e)"><path fill="#a7c957" d="M 356.546875 157.585938 C 357 159.011719 357.21875 160.539062 357.167969 162.125 C 356.9375 169.050781 351.390625 174.746094 344.472656 175.136719 C 339.992188 175.394531 335.953125 173.460938 333.324219 170.3125 C 333.324219 170.3125 333.261719 170.769531 333.210938 171.132812 C 333.179688 171.371094 332.957031 171.539062 332.71875 171.507812 L 332.671875 171.5 C 332.433594 171.46875 332.265625 171.246094 332.296875 171.007812 L 332.542969 169.183594 C 332.597656 168.792969 332.945312 168.519531 333.339844 168.554688 L 335.230469 168.726562 C 335.460938 168.75 335.628906 168.941406 335.628906 169.164062 C 335.628906 169.183594 335.628906 169.203125 335.625 169.222656 C 335.59375 169.460938 335.371094 169.628906 335.132812 169.597656 L 334.167969 169.464844 C 336.554688 172.375 340.25 174.167969 344.351562 173.953125 C 350.574219 173.625 355.617188 168.589844 355.964844 162.371094 C 356.050781 160.878906 355.863281 159.4375 355.457031 158.09375 Z M 356.546875 157.585938 " fill-opacity="1" fill-rule="nonzero"/></g><g clip-path="url(#2aa76b1cad)"><path fill="#386641" d="M 362.09375 154.578125 C 362.09375 152.960938 361.28125 151.445312 359.933594 150.542969 C 356.734375 148.410156 349.867188 143.835938 346.371094 141.507812 C 344.742188 140.421875 342.621094 140.421875 340.996094 141.507812 C 337.496094 143.835938 330.632812 148.410156 327.429688 150.542969 C 326.082031 151.445312 325.273438 152.960938 325.273438 154.578125 C 325.273438 158.796875 325.273438 168.410156 325.273438 173.824219 C 325.273438 175.109375 325.777344 176.34375 326.6875 177.25 C 327.59375 178.160156 328.828125 178.667969 330.117188 178.667969 C 336.824219 178.667969 350.53125 178.667969 357.246094 178.667969 C 358.535156 178.667969 359.761719 178.160156 360.675781 177.25 C 361.585938 176.34375 362.09375 175.109375 362.09375 173.824219 C 362.09375 168.410156 362.09375 158.796875 362.09375 154.578125 Z M 360.152344 154.578125 L 360.152344 173.824219 C 360.152344 174.59375 359.851562 175.328125 359.304688 175.882812 C 358.753906 176.425781 358.019531 176.730469 357.246094 176.730469 L 330.117188 176.730469 C 329.34375 176.730469 328.609375 176.425781 328.058594 175.882812 C 327.511719 175.328125 327.210938 174.59375 327.210938 173.824219 C 327.210938 168.410156 327.210938 158.796875 327.210938 154.578125 C 327.210938 153.609375 327.695312 152.703125 328.503906 152.15625 L 342.070312 143.117188 C 343.046875 142.46875 344.316406 142.46875 345.292969 143.117188 C 348.792969 145.449219 355.65625 150.023438 358.859375 152.15625 C 359.667969 152.703125 360.152344 153.609375 360.152344 154.578125 " fill-opacity="1" fill-rule="evenodd"/></g></svg>